<svg width="100" height="100" viewBox="0 0 100 100" fill="none" xmlns="http://www.w3.org/2000/svg">
<path d="M0 50C0 22.3858 22.3858 0 50 0C77.6142 0 100 22.3858 100 50C100 77.6142 77.6142 100 50 100C22.3858 100 0 77.6142 0 50Z" fill="white"/>
<path d="M40 80C45.5228 80 50 75.5228 50 70V60H40C34.4771 60 30 64.4771 30 70C30 75.5228 34.4771 80 40 80Z" fill="#0ACF83"/>
<path d="M30 50.0003C30 44.4775 34.4771 40.0003 40 40.0003H50V60.0003H40C34.4771 60.0003 30 55.5232 30 50.0003Z" fill="#A259FF"/>
<path d="M30 30.0003C30 24.4774 34.4771 20.0003 40 20.0003H50V40.0003H40C34.4771 40.0003 30 35.5231 30 30.0003Z" fill="#F24E1E"/>
<path d="M50 20.0001H60C65.5228 20.0001 70 24.4773 70 30.0001C70 35.5229 65.5228 40.0001 60 40.0001H50V20.0001Z" fill="#FF7262"/>
<path d="M70 50.0003C70 55.5232 65.5228 60.0003 60 60.0003C54.4771 60.0003 50 55.5232 50 50.0003C50 44.4775 54.4771 40.0003 60 40.0003C65.5228 40.0003 70 44.4775 70 50.0003Z" fill="#1ABCFE"/>
</svg>
