<svg width="100" height="100" viewBox="0 0 100 100" fill="none" xmlns="http://www.w3.org/2000/svg">
<circle cx="50" cy="50" r="50" fill="#E5D565"/>
<path d="M70.3626 35.2426L52.1481 24.3184C51.4939 23.9454 50.7537 23.7492 50.0006 23.7492C49.2475 23.7492 48.5074 23.9454 47.8532 24.3184L29.6376 35.2414C28.9811 35.6437 28.4395 36.2084 28.0651 36.8812C27.6907 37.5539 27.496 38.3118 27.5001 39.0816V60.8984C27.4961 61.6688 27.6907 62.4272 28.0651 63.1004C28.4395 63.7737 28.9811 64.3391 29.6376 64.7422L34.4141 67.5945L34.4411 67.6098C36.8528 68.8438 37.7762 68.8438 38.8462 68.8438C42.6126 68.8438 44.9528 66.4063 44.9528 62.4816V41.3281C44.955 41.064 44.8523 40.8099 44.6673 40.6214C44.4824 40.4329 44.2302 40.3254 43.9661 40.3227H41.3434C41.0793 40.3254 40.8271 40.4329 40.6422 40.6214C40.4572 40.8099 40.3545 41.064 40.3567 41.3281V62.4816C40.3662 62.7845 40.2973 63.0846 40.1567 63.353C40.0161 63.6214 39.8084 63.8488 39.554 64.0133C38.8626 64.4352 37.8583 64.3461 36.7251 63.7613L32.1477 61.0063C32.1302 60.9943 32.1159 60.9782 32.1061 60.9594C32.0963 60.9406 32.0912 60.9197 32.0915 60.8984V39.3898C32.0922 39.3651 32.0989 39.3409 32.1109 39.3193C32.123 39.2977 32.14 39.2793 32.1606 39.2656L49.9544 28.3672C49.9676 28.3606 49.9823 28.3571 49.9971 28.3571C50.012 28.3571 50.0266 28.3606 50.0399 28.3672L67.8442 39.2656C67.8645 39.2804 67.8809 39.2998 67.8921 39.3222C67.9033 39.3447 67.909 39.3695 67.9087 39.3945V60.8984C67.9091 60.9207 67.9046 60.9427 67.8955 60.963C67.8864 60.9832 67.8728 61.0012 67.8559 61.0156L50.0364 71.6387C50.006 71.6492 49.973 71.6492 49.9426 71.6387L45.3922 68.9363C45.2572 68.848 45.1011 68.7971 44.9399 68.7886C44.7788 68.7802 44.6182 68.8146 44.4747 68.8883L44.4348 68.9117C43.1786 69.6559 42.8411 69.8492 41.6762 70.2734C41.4864 70.3426 41.0399 70.5078 41.0012 70.9496C40.9626 71.3914 41.3868 71.7055 41.7641 71.9246L47.8462 75.6594C48.4942 76.0476 49.2353 76.2529 49.9907 76.2535H50.0587C50.7952 76.242 51.5157 76.0371 52.1481 75.6594L70.3626 64.7457C71.0187 64.3414 71.5599 63.7752 71.9342 63.1015C72.3085 62.4278 72.5034 61.6691 72.5001 60.8984V39.0816C72.5038 38.312 72.309 37.5544 71.9346 36.8819C71.5602 36.2094 71.0188 35.6448 70.3626 35.2426Z" fill="black"/>
<path d="M56.0798 57.2715C51.7099 57.2715 50.7783 56.0504 50.5017 54.0793C50.4706 53.8446 50.3562 53.6289 50.1794 53.4715C50.0026 53.314 49.7751 53.2253 49.5384 53.2215H47.2181C46.9566 53.227 46.7079 53.3359 46.5265 53.5244C46.3451 53.7128 46.2457 53.9654 46.2501 54.227C46.2501 55.9356 46.8501 61.5125 56.0845 61.5125C58.9415 61.5125 61.3181 60.8445 62.9552 59.5801C64.5923 58.3156 65.4689 56.4758 65.4689 54.2832C65.4689 49.8828 62.5978 48.6781 56.9435 47.8906C51.1955 47.0914 51.1955 46.6848 51.1955 45.7941C51.1955 45.1531 51.1955 43.652 55.3509 43.652C58.3076 43.652 59.8908 44.0258 60.397 45.9957C60.4419 46.2141 60.5599 46.4107 60.7317 46.5528C60.9035 46.6949 61.1186 46.7742 61.3415 46.7774H63.6701C63.8073 46.776 63.9427 46.7454 64.0671 46.6876C64.1916 46.6298 64.3023 46.5461 64.3919 46.4422C64.571 46.2332 64.6602 45.962 64.6404 45.6875C64.3392 41.5215 61.2935 39.4086 55.3544 39.4086C49.9568 39.4086 46.7353 41.8402 46.7353 45.9125C46.7353 50.3774 50.074 51.6395 55.0896 52.1621C60.949 52.768 60.949 53.6516 60.949 54.432C60.9525 55.6484 60.4474 57.2715 56.0798 57.2715Z" fill="black"/>
</svg>
